<?xml version="1.0" encoding="UTF-8"?>
<svg xmlns="http://www.w3.org/2000/svg" xmlns:xlink="http://www.w3.org/1999/xlink" width="194.1875" height="229.136719" viewBox="0 0 194.1875 229.136719">
<path fill-rule="nonzero" fill="rgb(0%, 0%, 0%)" fill-opacity="1" d="M 2.238281 227.128906 C 0.046875 224.46875 -0.0976562 200.769531 1.839844 161.769531 C 3.613281 126.03125 3.527344 82.023438 1.632812 55.941406 C -0.148438 31.386719 -0.882812 10.179688 0 8.816406 C 3.46875 3.476562 12.164062 6.75 15.359375 14.605469 C 17.949219 20.960938 21.253906 22.871094 29.667969 22.871094 C 47.308594 22.871094 54.3125 28.136719 54.3125 41.394531 C 54.3125 58.136719 49.058594 65.085938 33.007812 69.578125 C 21.777344 72.71875 18.902344 75.105469 18.902344 81.269531 C 18.902344 88.089844 20.578125 89.015625 32.941406 89.015625 C 49.726562 89.015625 54.3125 94.910156 54.3125 116.503906 C 54.3125 133.339844 49.875 138.097656 31.609375 140.867188 C 22.292969 142.28125 18.902344 144.445312 18.902344 148.976562 C 18.902344 153.765625 21.535156 155.15625 30.585938 155.15625 C 46.398438 155.15625 50.769531 160.257812 50.769531 178.699219 C 50.769531 200.386719 48.453125 204.203125 32.914062 208.109375 C 24.859375 210.132812 18.464844 214.066406 17.207031 217.769531 C 13.925781 227.421875 6.371094 232.144531 2.238281 227.128906 Z M 34.890625 191.453125 C 39.226562 184.898438 32.824219 168.386719 25.941406 168.386719 C 18.378906 168.386719 13.851562 178.582031 17.128906 188.226562 C 19.488281 195.164062 31.042969 197.265625 34.890625 191.453125 Z M 39.488281 114.644531 C 38.5625 105.6875 36.753906 103.722656 28.640625 102.851562 C 19.625 101.882812 18.902344 102.683594 18.902344 113.597656 C 18.902344 124.554688 19.671875 125.394531 29.75 125.394531 C 39.855469 125.394531 40.519531 124.65625 39.488281 114.644531 Z M 33.261719 53.152344 C 43.28125 45.574219 40.398438 36.101562 28.074219 36.101562 C 17.257812 36.101562 14.476562 39.9375 17.40625 50.832031 C 20.101562 60.859375 22.589844 61.222656 33.261719 53.152344 Z M 127.890625 181.011719 L 126.90625 133.660156 L 112.902344 133.660156 C 95.386719 133.660156 94.101562 137.121094 93.617188 185.554688 C 93.277344 219.558594 90.164062 229.648438 82.273438 222.277344 C 77.722656 218.027344 74.074219 169.269531 76.976562 151.527344 C 80.480469 130.144531 88.820312 121.742188 108.609375 119.65625 C 131.070312 117.292969 131.53125 108.855469 109.199219 108.855469 C 87.84375 108.855469 79.101562 100.761719 79.101562 80.984375 C 79.101562 60.984375 85.097656 55.792969 112.699219 51.898438 C 116.574219 51.351562 120.277344 48.320312 120.929688 45.15625 C 121.859375 40.632812 119.601562 39.398438 110.34375 39.359375 C 90.789062 39.277344 80.871094 32.675781 80.871094 19.742188 C 80.871094 13.582031 82.863281 7.921875 85.296875 7.164062 C 87.730469 6.40625 89.722656 7.910156 89.722656 10.507812 C 89.722656 18.546875 102.546875 26.75 113.3125 25.601562 C 122.207031 24.648438 123.363281 23.199219 123.363281 13.023438 C 123.363281 4.707031 125.082031 1.203125 129.5625 0.378906 C 134.648438 -0.558594 135.757812 1.648438 135.757812 12.707031 C 135.757812 25.210938 136.460938 26.175781 145.496094 26.132812 C 164.960938 26.042969 171.171875 22.738281 171.171875 12.460938 C 171.171875 2.03125 179.644531 -3.605469 186.167969 2.484375 C 191.664062 7.613281 183.472656 31.894531 175.519531 34.058594 C 172.152344 34.972656 161.832031 36.722656 152.578125 37.941406 C 141.742188 39.371094 135.757812 41.789062 135.757812 44.742188 C 135.757812 48.136719 141.222656 49.328125 156.804688 49.328125 C 174.539062 49.328125 178.71875 50.484375 183.363281 56.679688 C 189.035156 64.238281 190.792969 87.839844 186.167969 94.308594 C 181.359375 101.03125 168.203125 105.550781 153.4375 105.550781 C 141.390625 105.550781 138.992188 106.582031 139.960938 111.335938 C 140.871094 115.792969 145.796875 117.511719 161.375 118.8125 C 192.628906 121.414062 194.1875 124.078125 194.1875 174.84375 C 194.1875 198.273438 193.222656 218.34375 192.039062 219.449219 C 190.855469 220.550781 187.273438 220.515625 184.070312 219.371094 C 179.132812 217.601562 178.253906 211.433594 178.253906 178.585938 C 178.253906 133.625 175.636719 127.597656 156.851562 129.265625 L 144.613281 130.355469 L 142.839844 178.269531 C 141.292969 220.195312 140.308594 226.320312 134.972656 227.273438 C 129.46875 228.257812 128.777344 223.753906 127.890625 181.011719 Z M 125.136719 90.667969 C 125.136719 85.539062 112.910156 83.949219 102.40625 87.714844 C 92.097656 91.410156 96.660156 95.628906 110.972656 95.628906 C 121.199219 95.628906 125.136719 94.25 125.136719 90.667969 Z M 164.972656 92.367188 C 168.382812 92.34375 171.171875 90.832031 171.171875 89.015625 C 171.171875 87.195312 164 85.707031 155.234375 85.707031 C 140.1875 85.707031 136.03125 88.167969 141.867188 93.617188 C 143.277344 94.933594 147.660156 95.203125 151.605469 94.210938 C 155.550781 93.222656 161.566406 92.390625 164.972656 92.367188 Z M 125.136719 67.828125 C 125.136719 62.015625 123.464844 60.179688 118.9375 61.015625 C 96.972656 65.070312 93.265625 66.496094 93.265625 70.886719 C 93.265625 74.488281 97.488281 75.785156 109.199219 75.785156 C 123.671875 75.785156 125.136719 75.054688 125.136719 67.828125 Z M 171.171875 67.582031 C 171.171875 57.378906 142.058594 56.585938 139.964844 66.730469 C 138.980469 71.511719 141.5 72.480469 154.976562 72.480469 C 166.917969 72.480469 171.171875 71.191406 171.171875 67.582031 Z M 171.171875 67.582031 "/>
</svg>
