<svg width="100" height="100" viewBox="0 0 100 100" fill="none" xmlns="http://www.w3.org/2000/svg">
<rect width="100" height="100" rx="15" fill="#638BC4"/>
<path fill-rule="evenodd" clip-rule="evenodd" d="M95 40.7957C91.863 42.7428 89.5914 43.9327 86.9952 45.4471C71.4183 54.8582 56.3822 65.351 44.8077 79.089L39.1827 85.9039L22.0913 58.6442C25.8774 61.6731 35.5048 70.2188 39.399 72.1659L51.9471 62.6466C60.7091 56.4808 85.4808 43.0673 95 40.7957Z" fill="white"/>
<path d="M30.0962 61.1322C30.5288 61.4567 30.8534 61.7813 31.2861 62.1058C27.9327 52.6947 21.9832 43.2837 13.5457 35.1707C10.7332 35.1707 7.92067 35.1707 5 35.1707C15.8173 42.9591 24.2548 52.0457 30.0962 61.1322Z" fill="white"/>
<path d="M32.9087 63.6202C33.2332 63.9447 33.6659 64.1611 33.9904 64.4856C33.4495 51.7212 28.6899 38.6322 19.6034 27.3822C16.899 27.3822 14.1947 27.3822 11.4904 27.3822C23.0649 38.0913 30.2043 51.0721 32.9087 63.6202Z" fill="white"/>
<path d="M35.1803 65.4591C36.4784 66.5409 37.7764 67.5144 38.8582 68.2716C41.6707 54.5337 39.2909 39.7139 31.8269 26.8413C44.4832 26.625 57.1394 26.5168 69.6875 26.3005C72.5 32.5745 74.1226 39.2813 74.5553 46.2043C75.637 45.6635 76.7187 45.1226 77.9087 44.5817C77.3678 37.4423 75.4207 29.8702 71.6346 21C54.3269 21 37.1274 21 19.8197 21C31.0697 34.3053 36.1538 50.4231 35.1803 65.4591Z" fill="white"/>
</svg>
